<svg width="114" height="114" viewBox="0 0 114 114" fill="none" xmlns="http://www.w3.org/2000/svg">
<path d="M113.998 61.5071C113.998 61.5187 114 61.5293 114 61.5409C114 62.0107 113.857 62.6932 113.722 63.0974L113.719 63.108C112.127 67.6907 109.609 71.5845 106.437 74.3705C104.264 76.2762 101.706 77.7226 98.9166 78.4951C95.6757 79.3913 92.4135 79.3151 89.1979 78.5554C89.1799 78.5511 89.1609 78.5469 89.1429 78.5427C88.6561 78.4273 88.1705 78.2951 87.6869 78.1491C85.3125 77.4327 83.0228 76.4391 80.8758 75.199C79.7617 74.5557 78.6506 73.869 77.6571 73.05C77.2962 72.7548 76.9513 72.4405 76.6275 72.1051C75.4943 70.9349 74.4965 69.6334 73.6056 68.2705C72.8268 67.078 72.12 65.8305 71.5433 64.5269C71.2058 63.763 70.7804 62.8615 70.7804 62.0065C70.7804 61.9917 70.7825 61.9769 70.7825 61.9631C70.7825 61.942 70.7804 61.9219 70.7804 61.9007C70.7804 61.8605 70.7815 61.8192 70.7836 61.779C70.8672 59.9792 72.7982 58.3444 73.9579 57.5212C75.3758 56.5138 77.473 55.4377 79.1077 55.4377C80.2759 55.4377 81.0155 55.8663 81.5044 56.8249C81.7118 57.1815 81.9382 57.5899 82.1794 58.0217C83.3053 60.0458 84.849 62.8191 86.9081 65.0782C89.2825 67.6854 91.7236 68.953 94.371 68.953C100.32 68.953 103.926 63.4371 105.907 58.7951C106.065 58.3222 106.435 57.3021 107.653 57.3021C108.643 57.3021 110.909 58.5518 111.165 58.6936C111.663 58.9718 112.377 59.3983 112.946 59.8501C113.634 60.395 113.962 60.8616 113.997 61.3473C113.999 61.3769 114 61.4055 114 61.4351C114 61.4584 113.999 61.4827 113.998 61.5071Z" fill="#FFF8EE"/>
<path d="M87.1726 48.8586C85.0214 48.8586 82.9615 50.7496 83.0604 52.9708C83.1608 55.198 84.8678 57.0829 87.1726 57.0829C89.3237 57.0829 91.3836 55.1919 91.2847 52.9708C91.1843 50.7436 89.4774 48.8586 87.1726 48.8586Z" fill="#FFF8EE"/>
<path d="M101.918 57.0814C104.069 57.0814 106.129 55.1904 106.03 52.9693C105.93 50.7421 104.223 48.8572 101.918 48.8572C99.7669 48.8572 97.707 50.7482 97.8059 52.9693C97.9063 55.1965 99.6132 57.0814 101.918 57.0814Z" fill="#FFF8EE"/>
<path d="M89.1427 78.5426C88.656 78.4272 88.1703 78.295 87.6868 78.149C85.3124 77.4326 83.0226 76.4391 80.8757 75.1989C79.7615 74.5556 78.6505 73.8689 77.6569 73.0499C78.3003 75.1577 79.4028 79.6822 79.4028 85.9229C79.4028 94.465 76.5004 103.112 70.9517 103.112C64.9585 103.112 64.1332 91.9944 64.1332 79.9816V48.1229C72.4955 45.575 80.0641 41.2251 85.5028 35.8298C91.4166 29.9636 94.5423 23.2732 94.5423 16.4822C94.5423 6.93169 87.5122 0 77.8262 0C69.7222 0 63.1132 4.25573 58.7114 12.308C54.9245 19.2386 52.8379 28.9965 52.8379 39.785V40.9246C49.9757 46.7368 43.9169 54.5414 32.0333 54.5414C23.5917 54.5414 13.7343 50.0243 13.7343 37.291C13.7343 28.2717 19.265 21.2067 26.3248 21.2067C30.536 21.2067 33.2364 23.3822 33.9294 27.3342C34.1939 28.896 35.27 29.8282 36.8107 29.8282C38.0624 29.8282 40.1945 29.1774 41.6452 28.5733C44.3836 27.4315 45.6586 26.2041 45.6586 24.708C45.6586 20.7591 43.6926 16.7922 40.2654 13.8242C36.6636 10.7039 31.7952 8.98549 26.5575 8.98549C19.2174 8.98549 12.4402 12.0646 7.47344 17.6535C2.65374 23.0774 0 30.3001 0 37.9904C0 46.4543 2.95002 53.6219 8.53261 58.7189C11.2213 61.1737 14.4475 63.0709 18.1233 64.3575C21.795 65.6442 25.8486 66.296 30.1689 66.296C39.0919 66.296 46.7178 63.7555 52.8379 58.7453V80.3308C52.8379 91.0463 53.9203 98.5367 56.245 103.906C57.5899 107.013 59.3929 109.401 61.6033 111.002C63.9734 112.721 66.8843 113.591 70.2533 113.591C76.5248 113.591 81.6989 110.656 85.2171 105.103C88.2254 100.357 89.8813 93.8757 89.8813 86.8551C89.8813 83.5559 89.494 80.4429 89.1978 78.5553C89.1798 78.551 89.1607 78.5468 89.1427 78.5426ZM65.5987 25.5545C66.66 20.7813 68.281 16.8621 70.2872 14.2168C72.3442 11.5048 74.763 10.1293 77.4771 10.1293C81.3085 10.1293 83.5972 12.5915 83.5972 16.716C83.5972 20.8406 81.2767 25.4402 77.0633 29.4864C73.506 32.903 68.8619 35.7451 64.1681 37.4021C64.3216 33.1136 64.8019 29.133 65.5987 25.5545Z" fill="#FFF8EE"/>
</svg>
