<svg width="66" height="70" viewBox="0 0 66 70" fill="none" xmlns="http://www.w3.org/2000/svg">
<g clip-path="url(#clip0_390_1370)">
<path d="M64.1938 35.8069C63.9359 35.6625 62.6167 34.9404 61.9984 34.9404C61.1796 34.9404 60.9256 35.6346 60.827 35.9286C59.6329 38.7365 57.4653 42.071 53.9051 42.071C52.3261 42.071 50.8664 41.3075 49.4422 39.7371C48.1966 38.3642 47.2604 36.674 46.5764 35.4397C46.43 35.1761 46.292 34.9268 46.1663 34.7086C45.7511 33.8939 45.0773 33.7994 44.6054 33.7994C43.5822 33.7994 42.2798 34.469 41.4011 35.0958C40.6603 35.6243 39.4172 36.6876 39.4172 37.8701C39.4172 39.0526 41.3334 42.6318 43.5493 44.6548C43.9246 45.8341 44.6705 48.6834 44.6705 52.7024C44.6705 57.8727 42.9413 63.1071 39.6358 63.1071C38.6467 63.1071 37.2328 62.6991 36.3753 59.1711C35.6835 56.3269 35.5952 52.2762 35.5952 49.0655V34.026C35.6094 34.0182 36.0349 17.8137 36.4856 15.7803C37.8015 9.8381 40.3991 6.43051 43.6119 6.43051C45.909 6.43051 47.2269 7.85779 47.2269 10.3465C47.2269 11.5943 46.9019 13.0818 46.2869 14.6484C43.3894 21.0031 40.1149 23.9361 36.9486 26.4785L36.7601 33.7994C40.0489 31.9421 42.5339 29.6736 44.9813 27.4155C47.2972 25.2785 49.2275 22.9659 50.7188 20.542C53.8793 15.4034 54.1249 11.3301 54.1249 10.204C54.1236 4.29089 49.7917 0 43.824 0C38.8414 0 34.7796 2.62531 32.0769 7.59228C30.8822 9.78759 29.9667 12.4064 29.3554 15.3769C28.7771 18.1887 28.4838 21.2459 28.4838 24.4638V49.2786C28.4838 55.8528 29.1466 60.452 30.5688 63.7527C31.3967 65.6741 32.5082 67.1513 33.8718 68.1433C35.336 69.2093 37.1323 69.7494 39.2096 69.7494C43.0722 69.7494 46.2585 67.9348 48.4242 64.5013C50.2688 61.5775 51.2842 57.5897 51.2842 53.2716C51.2842 51.2297 51.0431 49.3064 50.8619 48.1485C51.6292 48.3635 52.595 48.4995 53.4789 48.4995C56.4492 48.4995 59.0913 47.4977 61.3318 45.5219C63.2802 43.8039 64.8256 41.4039 65.8017 38.5805L65.8043 38.5727C65.8914 38.3104 65.979 37.8863 65.979 37.5838C65.979 37.1998 65.7669 36.6882 64.1931 35.8062L64.1938 35.8069Z" fill="#FF5115"/>
<path d="M27.5342 31.6703C27.0771 31.8969 26.4903 32.1195 25.5064 32.5314C25.4065 32.5728 25.3291 32.6059 25.2788 32.6272C20.5445 34.6671 13.6581 35.261 9.82836 30.2234C8.35707 28.2878 7.51698 25.7415 7.46282 23.0527C7.39642 19.7552 8.72908 15.2733 12.7058 13.495C14.6491 12.626 16.8225 12.6026 18.3776 13.4348C19.6103 14.094 20.4027 15.2493 20.6677 16.7698C20.7921 17.5217 21.2827 17.953 22.0139 17.953C22.6186 17.953 23.7643 17.6506 24.7998 17.2167C26.273 16.6002 26.9893 15.9526 26.9893 15.2377C26.9893 12.942 25.8443 10.6288 23.8469 8.89198C21.7276 7.04831 18.8579 6.0329 15.7664 6.0329C11.4144 6.0329 7.39513 7.86686 4.44933 11.1974C1.58025 14.4398 0 18.7618 0 23.3661C0 28.4251 1.7511 32.7056 5.0644 35.7441C8.29453 38.7061 12.7561 40.272 17.9675 40.272C21.1351 40.272 24.0204 39.4441 27.5342 38.0272V31.6703Z" fill="#FF5115"/>
</g>
<path d="M49.016 28.277C47.4382 28.277 45.9273 29.6641 45.9998 31.2933C46.0735 32.9269 47.3255 34.3095 49.016 34.3095C50.5939 34.3095 52.1048 32.9224 52.0323 31.2933C51.9586 29.6596 50.7066 28.277 49.016 28.277Z" fill="#FF5115"/>
<path d="M59.5778 28.277C58 28.277 56.4891 29.6641 56.5616 31.2933C56.6352 32.9269 57.8873 34.3095 59.5778 34.3095C61.1557 34.3095 62.6666 32.9224 62.594 31.2933C62.5204 29.6596 61.2684 28.277 59.5778 28.277Z" fill="#FF5115"/>
<defs>
<clipPath id="clip0_390_1370">
<rect width="65.9797" height="69.75" fill="white"/>
</clipPath>
</defs>
</svg>
